<svg width="85" height="51" viewBox="0 0 85 51" fill="none" xmlns="http://www.w3.org/2000/svg">
<path d="M0 25.5C0 11.4167 11.3777 0 25.4129 0H58.7673C72.8025 0 84.1802 11.4167 84.1802 25.5V51H25.4129C11.3777 51 0 39.5833 0 25.5Z" fill="#DDE35F"/>
<path d="M13.4692 18.0073C13.4692 17.6479 13.4692 17.3597 13.4692 17.1426C13.4767 16.9255 13.443 16.7607 13.3682 16.6484C13.3008 16.5286 13.1698 16.4538 12.9751 16.4238C12.7879 16.3939 12.5034 16.3826 12.1216 16.3901V16.0532L15.7939 16.0083V16.3677H15.0864C15.0116 16.3677 14.9404 16.3901 14.873 16.4351C14.8132 16.48 14.7607 16.5361 14.7158 16.6035C14.6709 16.6709 14.6372 16.7458 14.6147 16.8281C14.5923 16.903 14.5811 16.9741 14.5811 17.0415V32.2363C14.5811 32.3187 14.596 32.4048 14.626 32.4946C14.6559 32.577 14.6971 32.6556 14.7495 32.7305C14.8094 32.8053 14.8768 32.8652 14.9517 32.9102C15.0265 32.9551 15.1089 32.9775 15.1987 32.9775L15.8389 32.9551L15.8613 33.3481L12.2114 33.4604L12.189 33.0674L12.8291 33.0449C12.9189 33.0374 13.0013 33.0075 13.0762 32.9551C13.1585 32.9027 13.2259 32.839 13.2783 32.7642C13.3307 32.6818 13.3719 32.5957 13.4019 32.5059C13.4318 32.4085 13.4468 32.3187 13.4468 32.2363L13.4692 20.5791L11.4028 27.8677L10.0664 24.0269L10.2349 31.4839C10.2349 31.5662 10.2498 31.6523 10.2798 31.7422C10.3097 31.832 10.3509 31.9144 10.4033 31.9893C10.4632 32.0566 10.5306 32.1165 10.6055 32.1689C10.6803 32.2139 10.7627 32.2363 10.8525 32.2363L11.4927 32.2139L11.5151 32.6069L8.52783 32.6968L8.50537 32.3149L9.14551 32.2925C9.23535 32.2925 9.31771 32.2663 9.39258 32.2139C9.47493 32.1615 9.54232 32.0978 9.59473 32.0229C9.64714 31.9406 9.68831 31.8545 9.71826 31.7646C9.74821 31.6748 9.75944 31.5887 9.75195 31.5063L9.51611 19.9614C9.51611 19.7892 9.45996 19.6357 9.34766 19.501C9.24284 19.3587 9.0931 19.2876 8.89844 19.2876C8.77116 19.2876 8.64762 19.2913 8.52783 19.2988C8.40804 19.3063 8.28451 19.3101 8.15723 19.3101L8.13477 18.9731L11.1333 18.8047L11.1558 19.1528C11.006 19.1603 10.86 19.1678 10.7178 19.1753C10.583 19.1753 10.4595 19.1978 10.3472 19.2427C10.2349 19.2801 10.145 19.3512 10.0776 19.4561C10.0103 19.5534 9.97656 19.6994 9.97656 19.894L9.99902 21.0171C10.0664 21.2267 10.145 21.4775 10.2349 21.7695C10.3322 22.0615 10.4445 22.4022 10.5718 22.7915C10.7065 23.1808 10.86 23.6226 11.0322 24.1167C11.2044 24.6108 11.3991 25.1649 11.6162 25.7788L13.4692 19.0854V18.0073ZM19.8145 30.2148C19.7246 30.3721 19.6048 30.5181 19.4551 30.6528C19.3053 30.7876 19.1444 30.9074 18.9722 31.0122C18.8 31.117 18.6203 31.1994 18.4331 31.2593C18.2459 31.3192 18.07 31.3491 17.9053 31.3491C17.6507 31.3491 17.4299 31.2967 17.2427 31.1919C17.0555 31.0796 16.8983 30.9373 16.771 30.7651C16.6437 30.5854 16.5464 30.387 16.479 30.1699C16.4191 29.9453 16.3892 29.717 16.3892 29.4849C16.3892 29.0506 16.4827 28.6688 16.6699 28.3394C16.8571 28.0024 17.0892 27.6955 17.3662 27.4185C17.6432 27.1414 17.9465 26.8757 18.2759 26.6211C18.6053 26.3665 18.9085 26.0933 19.1855 25.8013C19.4626 25.5093 19.6947 25.1873 19.8818 24.8354C20.069 24.4836 20.1626 24.068 20.1626 23.5889C20.1701 23.3568 20.1476 23.1134 20.0952 22.8589C20.0428 22.6043 19.9492 22.3722 19.8145 22.1626C19.6872 21.9455 19.5225 21.7695 19.3203 21.6348C19.1182 21.5 18.8786 21.4326 18.6016 21.4326C18.3021 21.4326 18.055 21.5037 17.8604 21.646C17.6732 21.7882 17.5234 21.9717 17.4111 22.1963C17.2988 22.4134 17.2202 22.6605 17.1753 22.9375C17.1379 23.207 17.1191 23.4728 17.1191 23.7349C17.1191 23.8397 17.1266 23.9707 17.1416 24.1279C17.1566 24.2852 17.1828 24.4386 17.2202 24.5884C17.2576 24.7306 17.3063 24.8542 17.3662 24.959C17.4336 25.0638 17.516 25.1162 17.6133 25.1162C17.7181 25.1162 17.8005 25.0825 17.8604 25.0151C17.9277 24.9478 17.9764 24.8691 18.0063 24.7793C18.0438 24.682 18.0625 24.5809 18.0625 24.4761C18.07 24.3713 18.07 24.2777 18.0625 24.1953L18.4556 24.1729C18.4631 24.3451 18.4518 24.5135 18.4219 24.6782C18.3994 24.8354 18.3545 24.9777 18.2871 25.105C18.2197 25.2323 18.1299 25.3333 18.0176 25.4082C17.9053 25.4831 17.7705 25.5205 17.6133 25.5205C17.3962 25.5205 17.2127 25.4606 17.063 25.3408C16.9207 25.2135 16.8084 25.0601 16.7261 24.8804C16.6437 24.6932 16.5838 24.4948 16.5464 24.2852C16.5164 24.0755 16.5015 23.8846 16.5015 23.7124C16.5015 23.3755 16.5464 23.0461 16.6362 22.7241C16.7261 22.4022 16.8608 22.1139 17.0405 21.8594C17.2202 21.5973 17.4486 21.3877 17.7256 21.2305C18.0026 21.0732 18.332 20.9946 18.7139 20.9946C19.193 20.9946 19.5898 21.1107 19.9043 21.3428C20.2188 21.5749 20.4696 21.8706 20.6567 22.23C20.8439 22.5819 20.9749 22.9674 21.0498 23.3867C21.1322 23.7985 21.1733 24.1878 21.1733 24.5547C21.1733 25.5055 21.1396 26.4526 21.0723 27.396C21.0049 28.3319 20.9712 29.279 20.9712 30.2373C20.9712 30.4469 20.9974 30.6079 21.0498 30.7202C21.1022 30.825 21.1771 30.8999 21.2744 30.9448C21.3717 30.9897 21.4878 31.016 21.6226 31.0234C21.7648 31.0309 21.922 31.0384 22.0942 31.0459V31.439C21.6974 31.424 21.3044 31.4128 20.915 31.4053C20.5332 31.3903 20.1514 31.3716 19.7695 31.3491L19.8145 30.2148ZM18.5229 30.6304C18.6278 30.6304 18.7401 30.6042 18.8599 30.5518C18.9871 30.4919 19.1107 30.4132 19.2305 30.3159C19.3503 30.2111 19.4626 30.0951 19.5674 29.9678C19.6797 29.833 19.777 29.687 19.8594 29.5298L20.0728 25.4756C19.8556 25.7751 19.6011 26.0745 19.3091 26.374C19.0246 26.666 18.7513 26.9655 18.4893 27.2725C18.2347 27.5794 18.0138 27.8976 17.8267 28.2271C17.647 28.5565 17.5571 28.9046 17.5571 29.2715C17.5571 29.4062 17.5758 29.556 17.6133 29.7207C17.6507 29.8779 17.7069 30.0239 17.7817 30.1587C17.8641 30.2935 17.9652 30.4058 18.085 30.4956C18.2122 30.5854 18.3582 30.6304 18.5229 30.6304ZM25.1152 32.5171H25.7891L25.7666 32.9326L22.1055 32.8877V32.4946H22.7456C22.8354 32.4946 22.9215 32.4684 23.0039 32.416C23.0863 32.3636 23.1536 32.3 23.2061 32.2251C23.266 32.1502 23.3109 32.0679 23.3408 31.978C23.3783 31.8882 23.397 31.8058 23.397 31.731L23.4644 22.5332C23.4644 22.3236 23.4194 22.1701 23.3296 22.0728C23.2472 21.9679 23.1387 21.8968 23.0039 21.8594C22.8766 21.8219 22.7306 21.807 22.5659 21.8145C22.4087 21.8219 22.2552 21.8257 22.1055 21.8257V21.4326C22.5322 21.4326 22.9515 21.4289 23.3633 21.4214C23.7826 21.4139 24.2056 21.4102 24.6323 21.4102C25.1714 21.4102 25.6506 21.4701 26.0698 21.5898C26.4966 21.7021 26.856 21.8856 27.1479 22.1401C27.4399 22.3947 27.6608 22.7241 27.8105 23.1284C27.9603 23.5252 28.0352 24.0081 28.0352 24.5771C28.0352 24.8766 27.9977 25.1911 27.9229 25.5205C27.8555 25.8424 27.7432 26.1457 27.5859 26.4302C27.4362 26.7072 27.2378 26.943 26.9907 27.1377C26.7511 27.3324 26.4554 27.4447 26.1035 27.4746C26.5902 27.6842 26.9757 27.995 27.2603 28.4067C27.5448 28.8185 27.6982 29.2827 27.7207 29.7993C27.7357 30.2935 27.7544 30.7876 27.7769 31.2817C27.8068 31.7684 27.8405 32.255 27.8779 32.7417C27.8929 32.9588 27.9229 33.1572 27.9678 33.3369C28.0202 33.5166 28.0913 33.6738 28.1812 33.8086C28.2785 33.9434 28.402 34.0482 28.5518 34.123C28.709 34.1979 28.8999 34.2391 29.1245 34.2466V34.5835C28.8101 34.5835 28.5181 34.5311 28.2485 34.4263C27.979 34.3215 27.7394 34.1829 27.5298 34.0107C27.3201 33.8385 27.1479 33.6401 27.0132 33.4155C26.8784 33.1909 26.7923 32.9588 26.7549 32.7192C26.6725 32.2476 26.6313 31.7684 26.6313 31.2817C26.6388 30.7951 26.6239 30.3084 26.5864 29.8218C26.5715 29.6271 26.5378 29.4025 26.4854 29.1479C26.4329 28.8859 26.3506 28.6388 26.2383 28.4067C26.126 28.1672 25.9837 27.965 25.8115 27.8003C25.6393 27.6356 25.4334 27.5532 25.1938 27.5532H24.5425L24.52 31.7534C24.52 31.8358 24.535 31.9219 24.5649 32.0117C24.5949 32.1016 24.6361 32.1839 24.6885 32.2588C24.7409 32.3337 24.8045 32.3973 24.8794 32.4497C24.9543 32.4946 25.0329 32.5171 25.1152 32.5171ZM25.2612 27.2275C25.6056 27.2275 25.8789 27.1302 26.0811 26.9355C26.2907 26.7409 26.4479 26.505 26.5527 26.228C26.665 25.9435 26.7362 25.6403 26.7661 25.3184C26.8035 24.9964 26.8223 24.7044 26.8223 24.4424C26.8223 24.1055 26.7923 23.7798 26.7324 23.4653C26.6725 23.1434 26.5677 22.8626 26.418 22.623C26.2682 22.3835 26.0623 22.1925 25.8003 22.0503C25.5457 21.9006 25.2201 21.8257 24.8232 21.8257C24.7783 21.8257 24.7371 21.8257 24.6997 21.8257C24.6623 21.8257 24.6248 21.8332 24.5874 21.8481L24.5425 27.2275H25.2612ZM31.2471 19.1528C31.2471 19.3475 31.1759 19.5197 31.0337 19.6694C30.8914 19.8192 30.723 19.894 30.5283 19.894C30.3337 19.894 30.1615 19.8192 30.0117 19.6694C29.862 19.5197 29.7871 19.3475 29.7871 19.1528C29.7871 18.9582 29.862 18.7935 30.0117 18.6587C30.1615 18.5164 30.3337 18.4453 30.5283 18.4453C30.723 18.4453 30.8914 18.5164 31.0337 18.6587C31.1759 18.7935 31.2471 18.9582 31.2471 19.1528ZM32.1567 29.7993V30.1924H28.9448V29.7769H30.0005L30.0229 22.8813C30.0229 22.7466 30.0117 22.6118 29.9893 22.4771C29.9668 22.3348 29.9256 22.2075 29.8657 22.0952C29.8058 21.9754 29.7235 21.8781 29.6187 21.8032C29.5213 21.7284 29.394 21.6872 29.2368 21.6797H28.7539V21.2979L31.2134 21.3428L31.1235 29.7769L32.1567 29.7993ZM34.897 25.0151C35.2339 25.0151 35.5072 25.0226 35.7168 25.0376C35.9339 25.0451 36.0986 25.0189 36.2109 24.959C36.3232 24.8991 36.3944 24.7868 36.4243 24.6221C36.4618 24.4574 36.4767 24.1991 36.4692 23.8472H36.8511V26.8794H36.4692V26.0034C36.4692 25.9435 36.458 25.8761 36.4355 25.8013C36.4206 25.7264 36.3944 25.659 36.3569 25.5991C36.3195 25.5317 36.2746 25.4756 36.2222 25.4307C36.1698 25.3857 36.1061 25.3633 36.0312 25.3633L34.897 25.3857L35.0205 29.8667C35.2526 29.8667 35.4772 29.8667 35.6943 29.8667C35.9115 29.8667 36.1286 29.8592 36.3457 29.8442C36.488 29.8368 36.6227 29.7956 36.75 29.7207C36.8848 29.6458 37.0008 29.5522 37.0981 29.4399C37.203 29.3276 37.2853 29.2041 37.3452 29.0693C37.4051 28.9271 37.4351 28.7886 37.4351 28.6538L37.4575 27.0703H37.8506L37.8169 30.2148C36.9559 30.2298 36.0911 30.2523 35.2227 30.2822C34.3542 30.3047 33.4894 30.3271 32.6284 30.3496L32.606 29.9453C32.8006 29.9453 32.9728 29.9453 33.1226 29.9453C33.2798 29.9378 33.4108 29.9079 33.5156 29.8555C33.6204 29.8031 33.6991 29.717 33.7515 29.5972C33.8114 29.4774 33.8413 29.3014 33.8413 29.0693V29.002L33.6841 21.7583C33.6766 21.5262 33.6429 21.3428 33.583 21.208C33.5231 21.0658 33.437 20.9609 33.3247 20.8936C33.2199 20.8262 33.0851 20.785 32.9204 20.77C32.7632 20.755 32.5798 20.7513 32.3701 20.7588L32.3477 20.377L37.5698 20.231L37.5923 23.4316H37.1992L37.1768 21.7583C37.1768 21.4663 37.1131 21.2118 36.9858 20.9946C36.866 20.7775 36.6377 20.6689 36.3008 20.6689C36.0462 20.6689 35.7954 20.6727 35.5483 20.6802C35.3088 20.6877 35.0617 20.6914 34.8071 20.6914L34.897 25.0151ZM45.8691 24.813H46.7002C46.9323 24.813 47.1007 24.7493 47.2056 24.6221C47.3179 24.4948 47.389 24.3413 47.4189 24.1616C47.4564 23.9819 47.4676 23.791 47.4526 23.5889C47.4451 23.3867 47.4377 23.2108 47.4302 23.061H47.8457V27.8677H47.4302V25.9585C47.4302 25.7489 47.3628 25.5729 47.228 25.4307C47.0933 25.2809 46.9173 25.2061 46.7002 25.2061H45.8691L45.8242 31.6411C45.8242 31.9032 45.8542 32.0941 45.9141 32.2139C45.974 32.3262 46.0563 32.401 46.1611 32.4385C46.2734 32.4684 46.4082 32.4797 46.5654 32.4722C46.7227 32.4572 46.9023 32.4497 47.1045 32.4497V32.8652H43.4321V32.4497H43.8926C44.0049 32.4497 44.1097 32.4272 44.207 32.3823C44.3044 32.3299 44.3867 32.2663 44.4541 32.1914C44.529 32.109 44.5851 32.0192 44.6226 31.9219C44.6675 31.8171 44.6899 31.7085 44.6899 31.5962L44.791 18.4229C44.791 18.3105 44.7573 18.2057 44.6899 18.1084C44.6226 18.0036 44.5365 17.9137 44.4316 17.8389C44.3343 17.764 44.2257 17.7041 44.106 17.6592C43.9862 17.6143 43.8739 17.5918 43.769 17.5918C43.6867 17.5918 43.6118 17.5955 43.5444 17.603C43.4771 17.6105 43.4022 17.6217 43.3198 17.6367V17.2212L49.2046 16.8057L49.2271 20.9722H48.834L48.8115 18.5127C48.8115 18.3555 48.7928 18.2057 48.7554 18.0635C48.7254 17.9137 48.6693 17.7865 48.5869 17.6816C48.512 17.5693 48.411 17.4795 48.2837 17.4121C48.1564 17.3447 48.0029 17.311 47.8232 17.311C47.5088 17.311 47.1943 17.3298 46.8799 17.3672C46.5654 17.3971 46.251 17.4271 45.9365 17.457L45.8691 24.813ZM53.1689 30.2148C53.0791 30.3721 52.9593 30.5181 52.8096 30.6528C52.6598 30.7876 52.4989 30.9074 52.3267 31.0122C52.1545 31.117 51.9748 31.1994 51.7876 31.2593C51.6004 31.3192 51.4245 31.3491 51.2598 31.3491C51.0052 31.3491 50.7843 31.2967 50.5972 31.1919C50.41 31.0796 50.2528 30.9373 50.1255 30.7651C49.9982 30.5854 49.9009 30.387 49.8335 30.1699C49.7736 29.9453 49.7437 29.717 49.7437 29.4849C49.7437 29.0506 49.8372 28.6688 50.0244 28.3394C50.2116 28.0024 50.4437 27.6955 50.7207 27.4185C50.9977 27.1414 51.3009 26.8757 51.6304 26.6211C51.9598 26.3665 52.263 26.0933 52.54 25.8013C52.8171 25.5093 53.0492 25.1873 53.2363 24.8354C53.4235 24.4836 53.5171 24.068 53.5171 23.5889C53.5246 23.3568 53.5021 23.1134 53.4497 22.8589C53.3973 22.6043 53.3037 22.3722 53.1689 22.1626C53.0417 21.9455 52.877 21.7695 52.6748 21.6348C52.4727 21.5 52.2331 21.4326 51.9561 21.4326C51.6566 21.4326 51.4095 21.5037 51.2148 21.646C51.0277 21.7882 50.8779 21.9717 50.7656 22.1963C50.6533 22.4134 50.5747 22.6605 50.5298 22.9375C50.4924 23.207 50.4736 23.4728 50.4736 23.7349C50.4736 23.8397 50.4811 23.9707 50.4961 24.1279C50.5111 24.2852 50.5373 24.4386 50.5747 24.5884C50.6121 24.7306 50.6608 24.8542 50.7207 24.959C50.7881 25.0638 50.8704 25.1162 50.9678 25.1162C51.0726 25.1162 51.1549 25.0825 51.2148 25.0151C51.2822 24.9478 51.3309 24.8691 51.3608 24.7793C51.3983 24.682 51.417 24.5809 51.417 24.4761C51.4245 24.3713 51.4245 24.2777 51.417 24.1953L51.8101 24.1729C51.8175 24.3451 51.8063 24.5135 51.7764 24.6782C51.7539 24.8354 51.709 24.9777 51.6416 25.105C51.5742 25.2323 51.4844 25.3333 51.3721 25.4082C51.2598 25.4831 51.125 25.5205 50.9678 25.5205C50.7507 25.5205 50.5672 25.4606 50.4175 25.3408C50.2752 25.2135 50.1629 25.0601 50.0806 24.8804C49.9982 24.6932 49.9383 24.4948 49.9009 24.2852C49.8709 24.0755 49.856 23.8846 49.856 23.7124C49.856 23.3755 49.9009 23.0461 49.9907 22.7241C50.0806 22.4022 50.2153 22.1139 50.395 21.8594C50.5747 21.5973 50.8031 21.3877 51.0801 21.2305C51.3571 21.0732 51.6865 20.9946 52.0684 20.9946C52.5475 20.9946 52.9443 21.1107 53.2588 21.3428C53.5732 21.5749 53.8241 21.8706 54.0112 22.23C54.1984 22.5819 54.3294 22.9674 54.4043 23.3867C54.4867 23.7985 54.5278 24.1878 54.5278 24.5547C54.5278 25.5055 54.4941 26.4526 54.4268 27.396C54.3594 28.3319 54.3257 29.279 54.3257 30.2373C54.3257 30.4469 54.3519 30.6079 54.4043 30.7202C54.4567 30.825 54.5316 30.8999 54.6289 30.9448C54.7262 30.9897 54.8423 31.016 54.9771 31.0234C55.1193 31.0309 55.2765 31.0384 55.4487 31.0459V31.439C55.0519 31.424 54.6589 31.4128 54.2695 31.4053C53.8877 31.3903 53.5059 31.3716 53.124 31.3491L53.1689 30.2148ZM51.8774 30.6304C51.9823 30.6304 52.0946 30.6042 52.2144 30.5518C52.3416 30.4919 52.4652 30.4132 52.585 30.3159C52.7048 30.2111 52.8171 30.0951 52.9219 29.9678C53.0342 29.833 53.1315 29.687 53.2139 29.5298L53.4272 25.4756C53.2101 25.7751 52.9556 26.0745 52.6636 26.374C52.3791 26.666 52.1058 26.9655 51.8438 27.2725C51.5892 27.5794 51.3683 27.8976 51.1812 28.2271C51.0015 28.5565 50.9116 28.9046 50.9116 29.2715C50.9116 29.4062 50.9303 29.556 50.9678 29.7207C51.0052 29.8779 51.0614 30.0239 51.1362 30.1587C51.2186 30.2935 51.3197 30.4058 51.4395 30.4956C51.5667 30.5854 51.7127 30.6304 51.8774 30.6304ZM60.6372 25.3633H60.2441V23.9595C60.2441 23.7274 60.2179 23.4578 60.1655 23.1509C60.1131 22.8439 60.027 22.5519 59.9072 22.2749C59.7874 21.9979 59.6227 21.7658 59.4131 21.5786C59.2109 21.3914 58.9601 21.2979 58.6606 21.2979C58.3088 21.2979 58.0355 21.3952 57.8408 21.5898C57.6536 21.777 57.5151 22.0915 57.4253 22.5332C57.3429 22.9674 57.2943 23.5477 57.2793 24.2739C57.2643 24.9927 57.2568 25.8836 57.2568 26.9468C57.2568 27.119 57.2531 27.3623 57.2456 27.6768C57.2456 27.9837 57.2531 28.3206 57.2681 28.6875C57.2905 29.0544 57.3242 29.4287 57.3691 29.8105C57.4215 30.1924 57.4964 30.5405 57.5938 30.855C57.6986 31.1694 57.8333 31.4277 57.998 31.6299C58.1702 31.8245 58.3836 31.9219 58.6382 31.9219C58.8628 31.9219 59.0575 31.8732 59.2222 31.7759C59.3944 31.6711 59.5404 31.5363 59.6602 31.3716C59.7799 31.2069 59.8773 31.0234 59.9521 30.8213C60.0345 30.6117 60.0944 30.3983 60.1318 30.1812C60.1768 29.964 60.203 29.7544 60.2104 29.5522C60.2254 29.3426 60.2292 29.1592 60.2217 29.002H60.6147C60.6147 29.3613 60.5811 29.7394 60.5137 30.1362C60.4538 30.5256 60.3415 30.8849 60.1768 31.2144C60.012 31.5438 59.7912 31.8171 59.5142 32.0342C59.2371 32.2513 58.8815 32.3599 58.4473 32.3599C58.0505 32.3599 57.7135 32.2588 57.4365 32.0566C57.167 31.847 56.9424 31.5775 56.7627 31.248C56.583 30.9186 56.4445 30.548 56.3472 30.1362C56.2573 29.7244 56.1899 29.3127 56.145 28.9009C56.1001 28.4891 56.0739 28.096 56.0664 27.7217C56.0589 27.3473 56.0552 27.0366 56.0552 26.7896C56.0552 26.2729 56.0589 25.7638 56.0664 25.2622C56.0739 24.7606 56.1001 24.2889 56.145 23.8472C56.1899 23.3979 56.2573 22.9824 56.3472 22.6006C56.4445 22.2188 56.5793 21.8931 56.7515 21.6235C56.9312 21.3465 57.1558 21.1294 57.4253 20.9722C57.6948 20.8149 58.028 20.7363 58.4248 20.7363C58.8516 20.7363 59.2184 20.8561 59.5254 21.0957C59.8398 21.3353 60.0794 21.646 60.2441 22.0278V19.7256H60.6372V25.3633ZM63.8042 21.3203H66.2188V21.7021H64.8599C64.7026 21.7021 64.5566 21.7471 64.4219 21.8369C64.2946 21.9193 64.186 22.0278 64.0962 22.1626C64.0063 22.2974 63.9352 22.4434 63.8828 22.6006C63.8379 22.7578 63.8117 22.9038 63.8042 23.0386L63.7593 31.3491C63.7593 31.5363 63.763 31.7572 63.7705 32.0117C63.7855 32.2663 63.8267 32.5096 63.894 32.7417C63.9614 32.9738 64.0662 33.1685 64.2085 33.3257C64.3507 33.4904 64.5529 33.5728 64.8149 33.5728C64.9946 33.5728 65.1406 33.5278 65.2529 33.438C65.3652 33.3481 65.4513 33.2358 65.5112 33.1011C65.5786 32.9663 65.6235 32.8203 65.646 32.6631C65.6685 32.5059 65.6759 32.3561 65.6685 32.2139L66.084 32.3149C66.084 32.6743 66.0353 32.9701 65.938 33.2021C65.8481 33.4417 65.7284 33.6289 65.5786 33.7637C65.4364 33.8984 65.2716 33.992 65.0845 34.0444C64.8973 34.0968 64.7101 34.123 64.5229 34.123C64.1561 34.123 63.8491 34.0295 63.6021 33.8423C63.3625 33.6551 63.1715 33.4193 63.0293 33.1348C62.887 32.8577 62.786 32.5508 62.7261 32.2139C62.6662 31.877 62.6362 31.5625 62.6362 31.2705L62.6812 21.7021H61.2549V21.3203H62.6812L62.7036 18.5576L63.8267 17.5918L63.8042 21.3203ZM68.8467 19.1528C68.8467 19.3475 68.7756 19.5197 68.6333 19.6694C68.491 19.8192 68.3226 19.894 68.1279 19.894C67.9333 19.894 67.7611 19.8192 67.6113 19.6694C67.4616 19.5197 67.3867 19.3475 67.3867 19.1528C67.3867 18.9582 67.4616 18.7935 67.6113 18.6587C67.7611 18.5164 67.9333 18.4453 68.1279 18.4453C68.3226 18.4453 68.491 18.5164 68.6333 18.6587C68.7756 18.7935 68.8467 18.9582 68.8467 19.1528ZM69.7563 29.7993V30.1924H66.5444V29.7769H67.6001L67.6226 22.8813C67.6226 22.7466 67.6113 22.6118 67.5889 22.4771C67.5664 22.3348 67.5252 22.2075 67.4653 22.0952C67.4054 21.9754 67.3231 21.8781 67.2183 21.8032C67.1209 21.7284 66.9937 21.6872 66.8364 21.6797H66.3535V21.2979L68.813 21.3428L68.7231 29.7769L69.7563 29.7993ZM72.4966 25.0151C72.8335 25.0151 73.1068 25.0226 73.3164 25.0376C73.5335 25.0451 73.6982 25.0189 73.8105 24.959C73.9229 24.8991 73.994 24.7868 74.0239 24.6221C74.0614 24.4574 74.0763 24.1991 74.0688 23.8472H74.4507V26.8794H74.0688V26.0034C74.0688 25.9435 74.0576 25.8761 74.0352 25.8013C74.0202 25.7264 73.994 25.659 73.9565 25.5991C73.9191 25.5317 73.8742 25.4756 73.8218 25.4307C73.7694 25.3857 73.7057 25.3633 73.6309 25.3633L72.4966 25.3857L72.6201 29.8667C72.8522 29.8667 73.0768 29.8667 73.2939 29.8667C73.5111 29.8667 73.7282 29.8592 73.9453 29.8442C74.0876 29.8368 74.2223 29.7956 74.3496 29.7207C74.4844 29.6458 74.6004 29.5522 74.6978 29.4399C74.8026 29.3276 74.8849 29.2041 74.9448 29.0693C75.0047 28.9271 75.0347 28.7886 75.0347 28.6538L75.0571 27.0703H75.4502L75.4165 30.2148C74.5555 30.2298 73.6908 30.2523 72.8223 30.2822C71.9538 30.3047 71.089 30.3271 70.228 30.3496L70.2056 29.9453C70.4002 29.9453 70.5724 29.9453 70.7222 29.9453C70.8794 29.9378 71.0104 29.9079 71.1152 29.8555C71.2201 29.8031 71.2987 29.717 71.3511 29.5972C71.411 29.4774 71.4409 29.3014 71.4409 29.0693V29.002L71.2837 21.7583C71.2762 21.5262 71.2425 21.3428 71.1826 21.208C71.1227 21.0658 71.0366 20.9609 70.9243 20.8936C70.8195 20.8262 70.6847 20.785 70.52 20.77C70.3628 20.755 70.1794 20.7513 69.9697 20.7588L69.9473 20.377L75.1694 20.231L75.1919 23.4316H74.7988L74.7764 21.7583C74.7764 21.4663 74.7127 21.2118 74.5854 20.9946C74.4657 20.7775 74.2373 20.6689 73.9004 20.6689C73.6458 20.6689 73.395 20.6727 73.1479 20.6802C72.9084 20.6877 72.6613 20.6914 72.4067 20.6914L72.4966 25.0151Z" fill="#15083E"/>
</svg>
